<svg xmlns="http://www.w3.org/2000/svg" viewBox="0 0 640 480">
  <rect width="640" height="480" fill="#f8fafc"/>
  <path d="M225 92h90v185c0 33-25 61-58 64l-62 6c-24 2-44-17-44-41 0-19 13-36 31-41l43-13V92z" fill="#fff" stroke="#cbd5e1" stroke-width="10"/>
  <path d="M350 92h90v185c0 33-25 61-58 64l-62 6c-24 2-44-17-44-41 0-19 13-36 31-41l43-13V92z" fill="#fff" stroke="#cbd5e1" stroke-width="10"/>
  <path d="M226 130h88M351 130h88" stroke="#16a34a" stroke-width="12"/>
  <text x="320" y="440" text-anchor="middle" font-family="Arial" font-size="30" font-weight="700" fill="#0f172a">School Socks</text>
</svg>
